<svg width="279" height="275" viewBox="0 0 279 275" fill="none" xmlns="http://www.w3.org/2000/svg">
<g clip-path="url(#clip0_8865_60634)">
<rect width="279" height="275" rx="78" fill="#F39F44"/>
<path d="M145.5 82V172.5L171 191C186.6 181.993 205.833 178.581 213.5 178H224.5C230.5 178 232 173 232 170.5V62.5C232 53.7 224 51.8334 220 52C175.2 52 151.667 72 145.5 82Z" fill="#FFE085"/>
<path d="M134.5 82V172.5L109 191C93.4 181.993 74.1667 178.581 66.5 178H55.5C49.5 178 48 173 48 170.5V62.5C48 53.7 56 51.8334 60 52C104.8 52 128.333 72 134.5 82Z" fill="#FFE085"/>
<circle cx="140" cy="213" r="24" fill="#25523B"/>
<path d="M140 243C161.811 243 180.543 256.175 188.676 275H91.3242C99.4568 256.175 118.189 243 140 243Z" fill="#25523B"/>
</g>
<defs>
<clipPath id="clip0_8865_60634">
<rect width="279" height="275" fill="white"/>
</clipPath>
</defs>
</svg>
